Coordinates
version=1
nRows=13
nColumns=36
inDegrees=yes

Units are S.I. units (second, meters, Newtons, ...)
If the header above contains a line with 'inDegrees', this indicates whether rotational values are in degrees (yes) or radians (no).

endheader
time	pelvis_tilt	pelvis_list	pelvis_rotation	pelvis_tx	pelvis_ty	pelvis_tz	hip_flexion_r	hip_adduction_r	hip_rotation_r	knee_angle_r	knee_angle_r_beta	ankle_angle_r	subtalar_angle_r	mtp_angle_r	hip_flexion_l	hip_adduction_l	hip_rotation_l	knee_angle_l	knee_angle_l_beta	ankle_angle_l	subtalar_angle_l	mtp_angle_l	lumbar_extension	lumbar_bending	lumbar_rotation	arm_flex_r	arm_add_r	arm_rot_r	elbow_flex_r	pro_sup_r	arm_flex_l	arm_add_l	arm_rot_l	elbow_flex_l	pro_sup_l
      1.95000000	     -0.18130131	     -9.86507910	      8.01934044	      0.34042065	      0.88842120	     -0.20237292	     45.64254197	      3.42939495	     -2.92364995	     58.03889637	      1.01296984	     -1.98721790	    -12.16355802	     -7.49931013	     29.76347388	     -0.32984686	      3.50321608	     44.42426745	      0.77534973	     18.10563910	     -5.60694020	     -7.49931013	    -17.83378370	      1.51252269	      5.83502598	     60.15759162	     10.40487748	     68.89964413	    118.27560993	     89.86145959	     50.51716485	     11.68492897	     66.62786365	    125.62495984	     78.83429130
      1.96666670	     -0.17520976	    -10.04367560	      8.04041624	      0.34933208	      0.89601888	     -0.20347946	     43.58278430	      3.84703325	     -2.69892112	     58.16965158	      1.01525194	     -2.44822265	    -11.99601278	     -7.49932086	     27.84775599	     -0.44781018	      3.91053787	     42.13987643	      0.73547959	     17.32886608	     -5.53125040	     -7.49932086	    -16.28010589	      1.42521233	      5.69327777	     58.97472215	     10.26438613	     69.15605101	    118.88114878	     89.76808640	     49.30546659	     11.46076269	     67.34144575	    125.99418673	     78.73944017
      1.98333330	      0.21218888	     -9.83425145	      7.96108931	      0.34796009	      0.90251721	     -0.20404109	     41.53720414	      3.99309939	     -2.25884521	     58.52893795	      1.02152267	     -3.06886992	    -13.69153647	     -7.49931237	     25.98373117	     -0.19655651	      4.24954371	     40.30067161	      0.70337941	     15.98411148	     -7.60735023	     -7.49931237	    -15.58068683	      1.09190366	      5.55472303	     58.93359455	     10.49316053	     69.14266121	    119.40666427	     90.35252020	     49.08335351	     11.33143144	     67.64205602	    126.23323686	     78.85043668
      2.00000000	      0.30965789	     -9.61246445	      8.03746332	      0.35259279	      0.90692295	     -0.20797133	     39.75568099	      3.86537478	     -1.57176711	     58.84676212	      1.02706975	     -2.88947184	    -14.54445648	     -7.49932988	     24.88300911	      0.26628465	      4.64306569	     39.19053811	      0.68400393	     15.42888513	     -9.16574909	     -7.49932988	    -14.46360986	      0.89328045	      5.16181827	     58.59678249	     10.53105592	     69.59503225	    119.86809680	     90.38525506	     48.58108329	     11.12943876	     67.83180001	    126.36584252	     78.50058713
      2.01666670	      0.41810781	     -9.19913960	      8.03869031	      0.35618118	      0.91327457	     -0.20535730	     38.13032456	      3.80127245	     -0.88870544	     58.59517151	      1.02267867	     -2.82430362	    -14.97774821	     -7.49934544	     23.33400794	      0.38449298	      4.21978593	     37.35175242	      0.65191106	     14.39787923	     -9.64816343	     -7.49934544	    -13.60951734	      0.25358231	      4.70321340	     58.13100064	     11.15700189	     69.80005802	    119.84809948	     90.42784281	     48.26465614	     10.89477010	     67.98938583	    126.52415707	     78.16405265
      2.03333330	      0.38361002	     -9.00897896	      7.77532990	      0.35646369	      0.91679653	     -0.20548134	     36.70097539	      4.07870670	     -0.01830643	     58.52487232	      1.02145172	     -1.48450941	    -14.91515330	     -7.49935191	     22.29463441	      0.32478173	      3.76821287	     35.64682646	      0.62215449	     13.85656921	     -9.54820564	     -7.49935191	    -12.50605281	     -0.02834607	      5.06777726	     57.50169687	     11.07347381	     70.01889775	    119.88492280	     90.45252956	     47.71859791	     10.49148256	     67.85977265	    126.88265934	     78.01719409
      2.05000000	      0.37069145	     -8.67012036	      7.29681814	      0.35957836	      0.92261815	     -0.20232515	     35.06310065	      4.20630611	      0.57296769	     58.44727021	      1.02009730	     -1.21706962	    -14.53648859	     -7.49935820	     20.89992490	      0.14183661	      2.64800817	     33.59001353	      0.58625633	     13.19543937	     -9.39253699	     -7.49935820	    -11.43085472	     -0.73715400	      5.40428515	     57.08960064	     11.25733895	     70.27117186	    119.66725553	     90.49273521	     47.43626555	      9.99981399	     67.53592673	    126.73270996	     77.85041437
      2.06666670	      0.30882920	     -8.09923585	      7.29214798	      0.36450707	      0.92168718	     -0.20558839	     33.61340719	      3.43326819	      0.81936843	     58.68337526	      1.02421811	     -1.04021294	    -15.20494894	     -7.49936540	     19.60306234	      0.57803028	      2.01397859	     31.50199513	      0.54981354	     12.72472348	     -9.05502599	     -7.49936540	    -10.30569315	     -1.38968045	      5.58705375	     57.03066022	     11.41505639	     70.05409297	    119.42530454	     90.52925439	     47.42131195	      9.94062435	     67.11631586	    127.05754813	     77.65481883
      2.08333330	      0.46429793	     -7.72378711	      7.20573747	      0.36284240	      0.92992918	     -0.20522050	     31.84845224	      2.83801557	      0.93740053	     57.55470991	      1.00451919	     -0.97390883	    -14.76107433	     -7.49938182	     18.22040911	      0.74572956	      1.28010557	     29.20676487	      0.50975421	     12.07055088	     -8.73279663	     -7.49938182	     -9.45875867	     -1.80769847	      6.18718183	     57.31678599	     11.53109777	     69.80868621	    118.91999209	     90.59771368	     47.55478095	      9.77280266	     66.63367134	    126.54657819	     77.19367147
      2.10000000	      0.38177853	     -7.50509178	      7.04913117	      0.36271440	      0.93249674	     -0.20447768	     30.47958763	      2.32687761	      0.84440347	     56.72418251	      0.99002375	     -0.06583177	    -13.62219918	     -7.49939228	     17.40115893	      0.78653315	      0.78248298	     27.45620543	      0.47920118	     11.68529555	     -8.19965906	     -7.49939228	     -8.59562164	     -1.96649941	      6.89428932	     57.44090875	     11.75240602	     69.74566662	    118.50278159	     90.63100804	     47.60814215	      9.67085805	     66.41742274	    126.11098549	     76.90625424
      2.11666670	      0.70682538	     -7.26315166	      6.84297506	      0.36660245	      0.93349211	     -0.20143286	     29.17512865	      2.06571247	      1.10734507	     56.61404066	      0.98810141	      1.26390129	    -12.20819204	     -7.49940541	     16.19382254	      0.72912557	      0.31201326	     26.07544517	      0.45510237	     11.75896637	     -7.58749919	     -7.49940541	     -8.28127167	     -2.45717457	      7.22449450	     57.80881145	     12.04653139	     69.57854981	    118.24157864	     90.68576721	     47.75894332	      9.60196913	     66.14295015	    125.85049893	     76.53514378
      2.13333330	      0.87112231	     -7.27563388	      6.79633250	      0.37122613	      0.93435672	     -0.20473528	     27.81057376	      1.87683163	      1.26726669	     56.46090431	      0.98542868	      2.55180411	    -12.05432714	     -7.49941112	     14.94897705	      0.67070033	      0.18222735	     24.43526718	      0.42647587	     12.27581816	     -7.64097063	     -7.49941112	     -7.53433651	     -2.47010796	      7.17513190	     57.26063255	     12.21886624	     69.39544500	    118.04386530	     90.79386329	     47.51666937	      9.75823370	     65.54500651	    125.68040319	     76.11301316
      2.15000000	      1.03118027	     -7.28514342	      7.13958761	      0.37024273	      0.93732070	     -0.20515421	     26.81555856	      1.62850201	      1.19397546	     56.57425263	      0.98740698	      3.31537748	    -12.36579693	     -7.49941933	     13.92028454	      0.82062476	      0.48579616	     23.21482905	      0.40517520	     12.22687326	     -7.61937905	     -7.49941933	     -6.98555092	     -2.39064623	      7.33927283	     56.87034119	     11.92410049	     68.98741365	    117.81876731	     90.85568723	     47.26704621	     10.15908850	     65.09907829	    125.72006009	     75.87090829
